<svg width="25" height="24" viewBox="0 0 25 24" fill="none" xmlns="http://www.w3.org/2000/svg">
<path d="M24.0816 8.30804H19.9924L15.6963 0.403232C15.4832 0.0105645 15.0209 -0.11764 14.6637 0.118464C14.3073 0.354568 14.1919 0.864868 14.4058 1.25837L18.2372 8.30804H5.84447L9.67584 1.25832C9.88971 0.864812 9.77434 0.354512 9.4179 0.118408C9.05999 -0.117696 8.59922 0.0105086 8.38536 0.403176L4.08927 8.30798H0V9.9696H1.63335L3.54521 21.2285C3.74509 22.4074 4.67842 23.2625 5.76467 23.2625H18.317C19.4032 23.2625 20.3365 22.4074 20.5357 21.2293L22.4482 9.9696H24.0816C24.0816 9.9696 24.0816 8.30804 24.0816 8.30804ZM19.0562 20.9235C18.9901 21.3161 18.6792 21.6009 18.3169 21.6009H5.76467C5.40235 21.6009 5.09151 21.3162 5.02463 20.9227L3.16419 9.9696H20.9174L19.0562 20.9235Z" fill="white"/>
</svg>
