<svg width="37" height="34" viewBox="0 0 37 34" fill="none" xmlns="http://www.w3.org/2000/svg">
<path d="M23.4346 11.2494L23.3709 13.1378L22.4759 13.9948L21.5808 14.8518L20.9841 14.2197C20.6559 13.8726 20.2522 13.545 20.0891 13.4926C19.8623 13.4209 19.9717 13.2018 20.5505 12.5755C20.9702 12.1218 21.2666 11.6333 21.2089 11.4917C21.1532 11.3482 21.0458 10.8965 20.9702 10.4893C20.8946 10.0822 20.7554 9.60326 20.6619 9.42488C20.5684 9.24845 18.9255 8.2286 17.0121 7.16222L13.5333 5.22142L12.7477 5.52194C11.6278 5.95043 10.6413 5.72358 9.7184 4.82395C8.88103 4.00768 8.64831 3.36398 8.83727 2.38485C9.11374 0.950091 10.5717 4.54579e-05 12.1748 0.209443C13.3304 0.360675 14.5199 1.60155 14.5199 2.65629C14.5199 3.04795 15.763 3.82737 21.0836 6.76863C23.3769 8.03665 23.534 8.33524 23.4346 11.2494ZM4.78368 17.2269C3.55845 18.3631 2.05278 18.3359 0.841472 17.1532C-0.43348 15.9104 -0.230602 13.8203 1.2532 12.94C1.92946 12.5368 3.64398 12.4204 4.1651 12.7423C4.47538 12.9342 5.56337 12.4049 10.0446 9.87276C13.3026 8.03277 13.4259 8.02502 15.932 9.50438C17.7938 10.6037 17.8037 10.6134 18.1359 11.7205C18.3189 12.3332 18.4263 12.9032 18.3726 12.9885C18.3189 13.0719 18.0324 13.1417 17.7341 13.1417C17.4377 13.1417 16.9902 13.2813 16.7396 13.4519C16.7058 13.4752 16.6759 13.4965 16.6461 13.5159C16.483 13.6303 16.3855 13.6981 16.308 13.6807C16.1807 13.6497 16.1111 13.3782 15.8962 12.6744C15.6178 11.7651 15.5541 11.705 14.5159 11.356C13.9152 11.1544 13.2449 11.0225 13.0241 11.0613C12.8053 11.1001 11.0928 11.9764 9.22115 13.0098L5.81796 14.8905L5.6847 15.701C5.58724 16.2962 5.34458 16.7053 4.78368 17.2269ZM26.6229 32.4567C25.6901 33.3641 24.3933 33.5366 23.2058 32.9084C22.4182 32.4916 21.6942 31.3186 21.6842 30.4441C21.6803 29.94 21.0776 29.5368 16.851 27.2043C15.3433 26.3725 13.9331 25.4748 13.7183 25.2073C13.3782 24.7865 13.3265 24.4162 13.3265 22.3649V20.0092L14.1857 19.1851L15.0469 18.3631L15.7908 19.0494C16.2026 19.4256 16.6381 19.7338 16.7615 19.7338C16.8868 19.7338 16.6441 20.077 16.2244 20.4958C15.4845 21.2345 15.4646 21.2908 15.5939 22.2486C15.6675 22.7934 15.8207 23.4313 15.9301 23.6678C16.0534 23.9276 17.5113 24.8815 19.6276 26.0836C23.1044 28.0613 23.1263 28.071 23.894 27.8461C24.9025 27.5514 25.9666 27.8538 26.7602 28.6604C27.2873 29.1975 27.3489 29.3894 27.3489 30.5042C27.3489 31.6773 27.3072 31.7878 26.6229 32.4567ZM25.8273 23.8656C24.7712 24.4724 23.7429 24.9649 23.54 24.9591C23.0706 24.9494 22.5475 24.7032 20.5326 23.5476C18.9036 22.6131 18.8996 22.6092 18.5376 21.4148L18.1737 20.2186L18.9374 20.108C19.3551 20.0479 19.8046 19.8948 19.9339 19.7687C20.3277 19.3848 20.463 19.5012 20.7474 20.4609C21.0418 21.4556 21.3282 21.6727 22.8777 22.076L23.7747 22.3106L27.3987 20.2942C30.1912 18.7431 31.0246 18.1905 31.0266 17.8919C31.0326 17.2366 31.7983 16.2342 32.5184 15.9414C34.6605 15.0689 36.6794 16.3447 36.6455 18.5492C36.6157 20.5327 34.3642 21.8433 32.5621 20.9262L31.8103 20.5443L29.7775 21.6514C28.6617 22.2621 26.8835 23.2568 25.8273 23.8656ZM25.8174 18.142C24.2401 18.9816 23.8065 19.0552 22.3108 18.7295C21.6107 18.5763 21.4774 18.4813 21.5987 18.2176C21.6803 18.0373 21.7877 17.5138 21.8354 17.0504C21.913 16.3001 21.9687 16.2226 22.3486 16.3234C23.8881 16.7364 24.1287 16.6918 25.1113 15.8018L26.0561 14.9487V6.85976L25.4315 6.22963C24.9522 5.74879 24.7851 5.38234 24.7135 4.65333C24.5365 2.87151 25.6603 1.70431 27.5478 1.70431C28.8984 1.70431 29.694 2.2026 30.1335 3.3252C30.6387 4.61261 30.416 5.47929 29.32 6.47586L28.4429 7.27468V16.273L27.8959 16.8003C27.5956 17.0912 26.6587 17.6942 25.8174 18.142ZM10.5379 31.4155C9.64679 31.8518 8.80346 31.844 8.05559 31.3942C6.15808 30.2503 5.86968 28.3385 7.38132 26.9096L8.15504 26.1767L8.15703 21.7444C8.16101 18.586 8.23261 17.1707 8.40963 16.8255C8.71992 16.2226 12.2027 14.307 12.9903 14.305C13.2966 14.305 13.9371 14.4 14.4105 14.5163C15.2657 14.7257 15.2697 14.7335 14.9972 15.2434C14.8461 15.5265 14.7207 16.0345 14.7207 16.368C14.7188 16.9748 14.7128 16.9768 13.9729 16.81C12.7337 16.5289 12.4692 16.6006 11.4866 17.4848L10.5418 18.334V26.2581L11.059 26.7293C12.6701 28.197 12.4155 30.4965 10.5379 31.4155ZM23.4306 5.15356C23.2993 5.28152 23.0527 5.37653 22.8836 5.36295C22.3884 5.32612 15.5323 1.24092 15.5223 0.979174C15.5084 0.552623 17.1016 -0.0949591 17.9071 0.0116786C18.8081 0.128011 22.3764 2.08821 23.1223 2.87539C23.715 3.50164 23.8801 4.71537 23.4306 5.15356ZM7.75724 8.77536C6.172 9.60907 4.50721 10.4951 4.05968 10.7453C3.61414 10.9973 3.1885 11.1447 3.1149 11.0729C3.0433 11.0031 2.98363 10.4835 2.98363 9.92123C2.98363 8.97506 3.04131 8.85098 3.73348 8.28483C4.92291 7.31152 7.97205 5.73909 8.85119 5.64409C9.42204 5.58205 9.82978 5.67123 10.2932 5.95431C11.5065 6.69689 11.3195 6.90629 7.75724 8.77536ZM20.4471 32.8755C19.2517 33.5793 19.0448 33.5677 17.2766 32.6758C14.7784 31.4175 13.3384 30.4538 13.1216 29.8993C12.7059 28.8329 12.9883 27.8732 13.7143 27.881C14.1121 27.8848 20.9344 31.9759 21.0299 32.2667C21.0696 32.3888 20.8071 32.6622 20.4471 32.8755ZM6.0467 22.5433C5.92537 26.1767 5.8657 26.7138 5.58923 26.7138C5.12977 26.7118 4.0378 26.0235 3.79713 25.5834C3.5684 25.1665 3.459 23.1928 3.5326 20.7673C3.57635 19.284 3.62011 19.1444 4.19294 18.586C4.80556 17.9889 5.80603 17.7717 6.0646 18.1808C6.13222 18.2855 6.12228 20.2476 6.0467 22.5433ZM30.6407 26.4229C29.1987 27.2217 28.1406 27.6832 27.7527 27.6832C26.9054 27.6832 25.8671 26.9755 25.8612 26.3919C25.8572 26.1748 33.2264 22.0605 33.6203 22.0605C33.7257 22.0605 33.8132 22.5355 33.8132 23.1152C33.8132 24.5112 33.493 24.8447 30.6407 26.4229ZM32.3732 14.6114C31.6074 15.2958 31.321 15.3888 30.8575 15.1019C30.6427 14.9681 30.593 14.0976 30.6189 10.7898C30.6368 8.51167 30.7243 6.57475 30.8158 6.48556C31.0763 6.23157 32.5024 7.04201 32.8247 7.62755C33.0435 8.02696 33.117 8.88006 33.117 11.0516V13.9463L32.3732 14.6114ZM19.928 18.2312C19.1463 19.0242 18.5754 19.1289 17.3065 18.7043C16.5347 18.4484 16.129 17.8105 15.9619 16.5968C15.8664 15.9065 15.932 15.7553 16.6202 15.0689C17.4596 14.2313 18.1418 14.1092 19.4924 14.559C20.0811 14.7548 20.2402 14.939 20.5187 15.7592C20.9245 16.9496 20.8389 17.3044 19.928 18.2312ZM32.9738 20.013C34.0519 20.5831 35.0225 20.2108 35.5277 19.03C35.7684 18.4678 35.7684 18.2855 35.5237 17.7135C35.1598 16.8624 34.567 16.5599 33.5387 16.6937C32.5502 16.8236 32.0231 17.3878 32.0231 18.3146C32.0231 19.1696 32.2936 19.6543 32.9738 20.013ZM8.19283 30.3007C8.99838 30.9638 9.82382 30.9347 10.5578 30.2192C12.145 28.6701 10.3748 26.3725 8.37184 27.3827C7.21026 27.9682 7.12076 29.4224 8.19283 30.3007ZM10.4225 4.14534C11.1286 4.83364 11.6617 4.95385 12.3956 4.58741C13.6367 3.96891 13.8933 2.61364 12.9446 1.68686C12.141 0.905497 11.1306 0.905497 10.327 1.68686C9.50955 2.48374 9.54138 3.28643 10.4225 4.14534ZM2.26361 16.9341C2.28947 16.9457 2.31334 16.9554 2.33919 16.9671C2.68329 17.1144 2.86031 17.1881 3.02938 17.1745C3.21634 17.159 3.39336 17.0349 3.7852 16.7771C4.88114 16.0519 5.04623 14.8712 4.17703 13.9618C3.57635 13.3336 2.14825 13.3569 1.48193 14.0045C0.570967 14.8944 0.966779 16.3854 2.26361 16.9341ZM27.0506 6.12687C28.1764 6.54179 29.6124 5.24468 29.3439 4.0581C29.1331 3.11968 28.5463 2.67181 27.5319 2.67181C26.3425 2.67181 25.6583 3.29418 25.6583 4.37413C25.6583 5.18652 26.1396 5.79338 27.0506 6.12687ZM23.5082 31.8518C24.3137 32.5149 25.1391 32.4858 25.8731 31.7703C26.5752 31.0859 26.6508 30.1126 26.0601 29.3797C25.2386 28.3618 23.5559 28.5479 22.9851 29.7209C22.5773 30.5585 22.7404 31.2236 23.5082 31.8518Z" fill="white"/>
</svg>
